<svg width="18" height="16" viewBox="0 0 18 16" fill="none" xmlns="http://www.w3.org/2000/svg">
<path d="M2.16303 15.5837C1.79762 15.5837 1.48296 15.4517 1.21908 15.1878C0.955187 14.9239 0.823242 14.6093 0.823242 14.2439V5.75678C0.823242 5.39137 0.955187 5.07671 1.21908 4.81283C1.48296 4.54894 1.79762 4.41699 2.16303 4.41699H4.58283L6.08283 2.41699H11.7464V3.50033H6.64866L5.14053 5.50033H2.16303C2.08817 5.50033 2.02671 5.52435 1.97866 5.57241C1.9306 5.62047 1.90658 5.68192 1.90658 5.75678V14.2439C1.90658 14.3187 1.9306 14.3802 1.97866 14.4282C2.02671 14.4763 2.08817 14.5003 2.16303 14.5003H14.6501C14.725 14.5003 14.7864 14.4763 14.8345 14.4282C14.8825 14.3802 14.9066 14.3187 14.9066 14.2439V6.66053H15.9899V14.2439C15.9899 14.6093 15.8604 14.9239 15.6014 15.1878C15.3423 15.4517 15.0253 15.5837 14.6501 15.5837H2.16303ZM14.9066 5.00033V3.50033H13.4066V2.41699H14.9066V0.916992H15.9899V2.41699H17.4899V3.50033H15.9899V5.00033H14.9066ZM8.40658 13.1797C9.32116 13.1797 10.0797 12.8715 10.6822 12.2551C11.2847 11.6387 11.586 10.8871 11.586 10.0003C11.586 9.12741 11.2847 8.37928 10.6822 7.75595C10.0797 7.13262 9.32116 6.82095 8.40658 6.82095C7.49199 6.82095 6.73345 7.13262 6.13095 7.75595C5.52845 8.37928 5.2272 9.13088 5.2272 10.0107C5.2272 10.8906 5.52845 11.6387 6.13095 12.2551C6.73345 12.8715 7.49199 13.1797 8.40658 13.1797ZM8.40658 12.0966C7.79116 12.0966 7.28797 11.8932 6.89699 11.4864C6.50588 11.0797 6.31033 10.5774 6.31033 9.97949C6.31033 9.39324 6.50588 8.90081 6.89699 8.5022C7.28797 8.10345 7.79116 7.90408 8.40658 7.90408C9.02199 7.90408 9.52519 8.10345 9.91616 8.5022C10.3073 8.90081 10.5028 9.39324 10.5028 9.97949C10.5028 10.5774 10.3073 11.0797 9.91616 11.4864C9.52519 11.8932 9.02199 12.0966 8.40658 12.0966Z" fill="currentColor"/>
</svg>
