<svg width="11" height="16" viewBox="0 0 11 16" fill="none" xmlns="http://www.w3.org/2000/svg">
<path d="M5.40658 15.5837C3.97074 15.5837 2.81317 15.3955 1.93387 15.0191C1.05456 14.6427 0.614909 14.1487 0.614909 13.5372C0.614909 13.2135 0.76102 12.9143 1.05324 12.6397C1.34546 12.3651 1.75762 12.1274 2.2897 11.9266L3.16949 12.736C2.90769 12.8214 2.63331 12.9348 2.34637 13.0764C2.05956 13.218 1.83817 13.3759 1.6822 13.5499C1.75053 13.7712 2.17442 13.9848 2.95387 14.191C3.73317 14.3972 4.54942 14.5003 5.40262 14.5003C6.31123 14.5003 7.14831 14.3972 7.91387 14.191C8.67928 13.9848 9.08234 13.7503 9.12303 13.4874C8.96915 13.3464 8.73998 13.2052 8.43553 13.0637C8.13095 12.9221 7.84783 12.8086 7.58616 12.723L8.47387 11.901C9.03901 12.0965 9.46769 12.3385 9.75991 12.627C10.0521 12.9155 10.1982 13.2177 10.1982 13.5337C10.1982 14.1463 9.75859 14.6411 8.87928 15.018C7.99998 15.3951 6.84241 15.5837 5.40658 15.5837ZM5.42741 11.7295C6.75213 10.7252 7.74651 9.70998 8.41053 8.68387C9.07456 7.65762 9.40658 6.65949 9.40658 5.68949C9.40658 4.30713 8.97734 3.26338 8.11887 2.55824C7.2604 1.85296 6.35762 1.50033 5.41053 1.50033C4.46345 1.50033 3.55935 1.85317 2.69824 2.55887C1.83713 3.26442 1.40658 4.30873 1.40658 5.69178C1.40658 6.60901 1.74123 7.57512 2.41053 8.59012C3.07984 9.60512 4.08546 10.6516 5.42741 11.7295ZM5.40658 13.0837C3.69921 11.8074 2.42519 10.546 1.58449 9.29949C0.743659 8.0531 0.323242 6.85019 0.323242 5.69074C0.323242 4.83199 0.476575 4.07463 0.783242 3.41866C1.08991 2.76269 1.48838 2.21324 1.97866 1.77033C2.46908 1.32755 3.01574 0.991297 3.61866 0.761575C4.22144 0.531853 4.81783 0.416992 5.40783 0.416992C5.99783 0.416992 6.5938 0.531853 7.19574 0.761575C7.79783 0.991297 8.34408 1.32755 8.83449 1.77033C9.32477 2.21324 9.72324 2.76289 10.0299 3.41928C10.3366 4.07567 10.4899 4.83241 10.4899 5.68949C10.4899 6.84908 10.0695 8.0522 9.22866 9.29887C8.38797 10.5455 7.11394 11.8071 5.40658 13.0837ZM5.41053 6.9122C5.78178 6.9122 6.0972 6.78373 6.35678 6.52678C6.61651 6.26984 6.74637 5.95303 6.74637 5.57637C6.74637 5.19984 6.61623 4.88178 6.35595 4.6222C6.09567 4.36248 5.77921 4.23262 5.40658 4.23262C5.03796 4.23262 4.72255 4.36623 4.46033 4.63345C4.19796 4.90081 4.06678 5.2138 4.06678 5.57241C4.06678 5.93783 4.19796 6.25248 4.46033 6.51637C4.72255 6.78026 5.03928 6.9122 5.41053 6.9122Z" fill="currentColor"/>
</svg>
