<svg width="11" height="16" viewBox="0 0 11 16" fill="none" xmlns="http://www.w3.org/2000/svg">
<path d="M5.40658 9.90397C4.82435 9.90397 4.33158 9.7023 3.92824 9.29897C3.52491 8.89564 3.32324 8.40286 3.32324 7.82064V2.82064C3.32324 2.23842 3.52491 1.74564 3.92824 1.3423C4.33158 0.938971 4.82435 0.737305 5.40658 0.737305C5.9888 0.737305 6.48158 0.938971 6.88491 1.3423C7.28824 1.74564 7.48991 2.23842 7.48991 2.82064V7.82064C7.48991 8.40286 7.28824 8.89564 6.88491 9.29897C6.48158 9.7023 5.9888 9.90397 5.40658 9.90397ZM4.86491 15.1123V12.8654C3.56213 12.7208 2.47949 12.1724 1.61699 11.2202C0.754492 10.2679 0.323242 9.13467 0.323242 7.82064H1.40658C1.40658 8.92731 1.79706 9.87064 2.57803 10.6506C3.35887 11.4306 4.30331 11.8206 5.41137 11.8206C6.51928 11.8206 7.46213 11.4306 8.23991 10.6506C9.01769 9.87064 9.40658 8.92731 9.40658 7.82064H10.4899C10.4899 9.13467 10.0587 10.2679 9.19616 11.2202C8.33366 12.1724 7.25102 12.7208 5.94824 12.8654V15.1123H4.86491ZM5.40658 8.82064C5.68991 8.82064 5.92741 8.7248 6.11908 8.53314C6.31074 8.34147 6.40658 8.10397 6.40658 7.82064V2.82064C6.40658 2.5373 6.31074 2.2998 6.11908 2.10814C5.92741 1.91647 5.68991 1.82064 5.40658 1.82064C5.12324 1.82064 4.88574 1.91647 4.69408 2.10814C4.50241 2.2998 4.40658 2.5373 4.40658 2.82064V7.82064C4.40658 8.10397 4.50241 8.34147 4.69408 8.53314C4.88574 8.7248 5.12324 8.82064 5.40658 8.82064Z" fill="white"/>
</svg>
