<svg width="15" height="16" viewBox="0 0 15 16" fill="none" xmlns="http://www.w3.org/2000/svg">
<path d="M4.97042 10.1925H12.4254L10.089 7.04501L8.14979 9.5771L6.75875 7.79189L4.97042 10.1925ZM3.95438 12.904C3.57924 12.904 3.26215 12.7745 3.00312 12.5154C2.7441 12.2564 2.61458 11.9393 2.61458 11.5642V2.0771C2.61458 1.70196 2.7441 1.38487 3.00312 1.12585C3.26215 0.866819 3.57924 0.737305 3.95438 0.737305H13.4415C13.8166 0.737305 14.1337 0.866819 14.3927 1.12585C14.6517 1.38487 14.7812 1.70196 14.7812 2.0771V11.5642C14.7812 11.9393 14.6517 12.2564 14.3927 12.5154C14.1337 12.7745 13.8166 12.904 13.4415 12.904H3.95438ZM3.95438 11.8206H13.4415C13.5056 11.8206 13.5644 11.7939 13.6177 11.7404C13.6712 11.6871 13.6979 11.6283 13.6979 11.5642V2.0771C13.6979 2.01293 13.6712 1.95418 13.6177 1.90085C13.5644 1.84737 13.5056 1.82064 13.4415 1.82064H3.95438C3.89021 1.82064 3.83146 1.84737 3.77813 1.90085C3.72465 1.95418 3.69792 2.01293 3.69792 2.0771V11.5642C3.69792 11.6283 3.72465 11.6871 3.77813 11.7404C3.83146 11.7939 3.89021 11.8206 3.95438 11.8206ZM1.37104 15.4873C0.995903 15.4873 0.678819 15.3578 0.419792 15.0988C0.160764 14.8397 0.03125 14.5227 0.03125 14.1475V3.5771H1.11458V14.1475C1.11458 14.2117 1.14132 14.2704 1.19479 14.3238C1.24813 14.3772 1.30687 14.404 1.37104 14.404H11.9415V15.4873H1.37104Z" fill="currentColor"/>
</svg>
