<svg width="16" height="16" viewBox="0 0 16 16" fill="none" xmlns="http://www.w3.org/2000/svg">
<path fill-rule="evenodd" clip-rule="evenodd" d="M3.49453 2.3352C6.44049 -0.226723 10.9105 -0.106316 13.7142 2.69633C16.6428 5.62613 16.6428 10.3739 13.7144 13.3035C10.7846 16.2322 6.03581 16.2322 3.1073 13.3036C2.30873 12.505 1.71132 11.5536 1.34188 10.5109L1.78892 10.3525L1.34171 10.5106L1.22791 10.162C1.01752 9.46018 0.910643 8.73159 0.910643 7.9997H2.4542L2.46382 8.33865C2.49584 8.9024 2.60763 9.46037 2.79674 9.99539L2.7968 9.99536L2.90116 10.2683C3.19714 10.9887 3.63414 11.6475 4.19876 12.2121C6.52451 14.5379 10.2961 14.5379 12.6229 12.212C14.9486 9.88539 14.9486 6.11464 12.6227 3.78781C10.3306 1.49653 6.63579 1.46263 4.30292 3.68622L6.68087 3.68698V5.22954H3.49394H1.95141V3.68698V0.5H3.49394L3.49453 2.3352Z" fill="currentColor"/>
</svg>
