<svg width="14" height="14" viewBox="0 0 14 14" fill="none" xmlns="http://www.w3.org/2000/svg">
<path d="M8.93825 13.6412V12.4953C10.0846 12.1546 11.0112 11.5071 11.7178 10.5526C12.4246 9.59817 12.778 8.52255 12.778 7.32574C12.778 6.12908 12.4212 5.0588 11.7074 4.11491C10.9938 3.17088 10.0708 2.50769 8.93825 2.12533V0.979492C10.3784 1.35338 11.559 2.12713 12.4799 3.30074C13.4008 4.47435 13.8612 5.80741 13.8612 7.29991C13.8612 8.79241 13.4042 10.1289 12.4903 11.3095C11.5763 12.49 10.3923 13.2673 8.93825 13.6412ZM0.951172 8.88324V5.71658H3.71076L7.11763 2.3097V12.2901L3.71076 8.88324H0.951172ZM8.93825 10.1572V4.44262C9.47409 4.72595 9.88798 5.1229 10.1799 5.63345C10.4717 6.14401 10.6176 6.70283 10.6176 7.30991C10.6176 7.90894 10.4703 8.46178 10.1758 8.96845C9.88117 9.47512 9.46867 9.87137 8.93825 10.1572ZM6.0343 4.92491L4.1593 6.79991H2.0343V7.79991H4.1593L6.0343 9.67491V4.92491Z" fill="white"/>
</svg>
